<svg xmlns="http://www.w3.org/2000/svg" xmlns:xlink="http://www.w3.org/1999/xlink" width="2000" zoomAndPan="magnify" viewBox="0 0 1500 1499.999933" height="2000" preserveAspectRatio="xMidYMid meet" version="1.0"><defs><g/><clipPath id="ec072fa5d8"><path d="M 199 590.542969 L 420 590.542969 L 420 705 L 199 705 Z M 199 590.542969 " clip-rule="nonzero"/></clipPath><clipPath id="fa04eafe54"><path d="M 189.023438 661 L 303 661 L 303 854.542969 L 189.023438 854.542969 Z M 189.023438 661 " clip-rule="nonzero"/></clipPath><clipPath id="81887b4f5d"><path d="M 316 661 L 429.773438 661 L 429.773438 854.542969 L 316 854.542969 Z M 316 661 " clip-rule="nonzero"/></clipPath><clipPath id="6629ec70c9"><rect x="0" width="817" y="0" height="389"/></clipPath></defs><rect x="-150" width="1800" fill="#ffffff" y="-149.999993" height="1799.99992" fill-opacity="1"/><rect x="-150" width="1800" fill="#000000" y="-149.999993" height="1799.99992" fill-opacity="1"/><g clip-path="url(#ec072fa5d8)"><path fill="#ffffff" d="M 306.980469 590.621094 C 305.421875 590.898438 303.105469 591.484375 302.152344 591.847656 C 301.132812 592.226562 295.734375 594.925781 273.417969 606.222656 C 257.972656 614.023438 240.777344 622.777344 233.976562 626.273438 C 230.035156 628.3125 221.195312 632.777344 214.34375 636.203125 C 207.492188 639.644531 201.613281 642.652344 201.285156 642.914062 C 199.742188 644.125 199.105469 645.890625 199.621094 647.53125 C 200.125 649.105469 201.042969 649.9375 204.171875 651.582031 C 205.675781 652.375 208.03125 653.621094 209.414062 654.347656 C 216.144531 657.929688 227.386719 663.8125 239.167969 669.917969 C 244.359375 672.597656 249.21875 675.140625 249.980469 675.539062 C 250.742188 675.9375 252.886719 677.078125 254.738281 678.046875 C 256.585938 679.015625 258.886719 680.226562 259.839844 680.730469 C 260.792969 681.230469 263.472656 682.632812 265.808594 683.84375 C 268.144531 685.054688 271.414062 686.765625 273.074219 687.648438 C 274.734375 688.53125 279.335938 690.953125 283.28125 693.011719 C 287.222656 695.070312 292.136719 697.648438 294.175781 698.71875 C 303.8125 703.753906 303.710938 703.71875 306.753906 704.253906 C 308.640625 704.582031 309.902344 704.582031 311.996094 704.253906 C 314.296875 703.910156 315.785156 703.425781 317.875 702.316406 C 323.273438 699.464844 324.65625 698.738281 345.640625 687.855469 C 348.21875 686.523438 351.800781 684.65625 353.597656 683.703125 C 359.53125 680.589844 366.695312 676.820312 370.171875 675.003906 C 373.820312 673.082031 387.070312 666.09375 392.953125 662.980469 C 394.90625 661.960938 401.101562 658.742188 406.707031 655.851562 C 417.515625 650.28125 418.3125 649.78125 419.109375 648.222656 C 419.300781 647.84375 419.507812 647.046875 419.558594 646.476562 C 419.628906 645.578125 419.558594 645.285156 419.195312 644.539062 C 418.332031 642.84375 418.226562 642.773438 405.839844 636.390625 C 402.898438 634.886719 392.9375 629.835938 383.699219 625.199219 C 359.894531 613.230469 344.394531 605.410156 326.300781 596.242188 C 318.117188 592.074219 317.410156 591.761719 314.9375 591.105469 C 313.550781 590.742188 312.824219 590.65625 310.351562 590.601562 C 308.742188 590.566406 307.222656 590.566406 306.980469 590.621094 Z M 306.980469 590.621094 " fill-opacity="1" fill-rule="nonzero"/></g><g clip-path="url(#fa04eafe54)"><path fill="#ffffff" d="M 192.753906 662.203125 C 191.457031 662.546875 190.558594 663.308594 189.917969 664.570312 C 188.96875 666.441406 188.933594 666.941406 189.105469 680.816406 C 189.175781 687.71875 189.261719 714.132812 189.261719 739.542969 L 189.296875 785.730469 L 189.695312 787.203125 C 190.785156 791.144531 192.632812 794.207031 195.714844 797.078125 C 196.421875 797.738281 197.53125 798.585938 198.152344 798.949219 C 198.773438 799.3125 200.78125 800.453125 202.582031 801.472656 C 204.398438 802.511719 208.636719 804.949219 212.007812 806.886719 C 215.382812 808.84375 221.972656 812.613281 226.625 815.277344 C 233.683594 819.308594 239.980469 822.941406 253.007812 830.5 C 254.890625 831.589844 279.335938 845.585938 281.636719 846.882812 C 282.585938 847.417969 285.199219 848.890625 287.429688 850.167969 C 289.664062 851.433594 292.152344 852.816406 292.96875 853.230469 C 297.445312 855.550781 301.269531 854.460938 302.273438 850.601562 C 302.410156 850.117188 302.464844 830.398438 302.5 787.375 L 302.515625 724.839844 L 302.066406 723.316406 C 301.269531 720.621094 300.078125 718.542969 298.171875 716.554688 C 296.71875 715.050781 296.132812 714.652344 292.636719 712.816406 C 291.0625 711.988281 286.84375 709.773438 283.28125 707.886719 C 279.714844 706.003906 273.835938 702.90625 270.21875 701.003906 C 266.605469 699.117188 261.5 696.417969 258.886719 695.050781 C 256.277344 693.667969 249.960938 690.363281 244.875 687.699219 C 239.789062 685.019531 234.410156 682.199219 232.941406 681.421875 C 231.46875 680.640625 227.386719 678.496094 223.859375 676.664062 C 218.304688 673.773438 211.851562 670.382812 206.386719 667.496094 C 195.488281 661.734375 195.089844 661.578125 192.753906 662.203125 Z M 192.753906 662.203125 " fill-opacity="1" fill-rule="nonzero"/></g><g clip-path="url(#81887b4f5d)"><path fill="#ffffff" d="M 423.140625 662.289062 C 421.859375 662.652344 422.570312 662.289062 402.207031 672.890625 C 397.554688 675.3125 391.636719 678.394531 389.0625 679.726562 C 380.082031 684.394531 376.226562 686.402344 372.28125 688.511719 C 368.421875 690.570312 357.734375 696.195312 352.992188 698.667969 C 350.019531 700.222656 341.871094 704.515625 335.609375 707.800781 C 332.945312 709.203125 329.085938 711.226562 327.046875 712.296875 C 322.839844 714.511719 322.203125 714.929688 320.714844 716.484375 C 318.722656 718.5625 317.289062 721.136719 316.578125 723.976562 L 316.148438 725.671875 L 316.148438 787.445312 C 316.148438 830.847656 316.199219 849.546875 316.335938 850.273438 C 316.839844 853.042969 319.019531 854.683594 321.839844 854.441406 C 323.621094 854.285156 324.8125 853.769531 329.328125 851.257812 C 348.234375 840.742188 350.917969 839.238281 361.730469 832.992188 C 371.140625 827.542969 371.675781 827.230469 382.140625 821.246094 C 389.441406 817.058594 400.546875 810.675781 405.667969 807.703125 C 410.527344 804.882812 412.65625 803.636719 417.152344 801.042969 C 421.84375 798.324219 422.152344 798.117188 423.746094 796.542969 C 426.6875 793.621094 428.535156 790.246094 429.351562 786.25 C 429.558594 785.230469 429.625 777.949219 429.746094 739.542969 C 429.957031 670.140625 429.957031 666.925781 429.558594 665.765625 C 428.898438 663.84375 427.984375 662.808594 426.445312 662.269531 C 425.355469 661.890625 424.472656 661.890625 423.140625 662.289062 Z M 423.140625 662.289062 " fill-opacity="1" fill-rule="nonzero"/></g><g transform="matrix(1, 0, 0, 1, 446, 546)"><g clip-path="url(#6629ec70c9)"><g fill="#ffffff" fill-opacity="1"><g transform="translate(0.428838, 279.138852)"><g><path d="M 80.40625 2.9375 C 66.882812 2.9375 55.070312 0.164062 44.96875 -5.375 C 34.863281 -10.914062 27.039062 -18.816406 21.5 -29.078125 C 15.96875 -39.347656 13.203125 -51.328125 13.203125 -65.015625 L 13.203125 -178.40625 L 51.078125 -178.40625 L 51.078125 -111.6875 L 51.8125 -111.6875 C 54.257812 -115.101562 57.3125 -118.070312 60.96875 -120.59375 C 64.632812 -123.125 68.707031 -125.039062 73.1875 -126.34375 C 77.675781 -127.65625 82.441406 -128.3125 87.484375 -128.3125 C 99.378906 -128.3125 109.804688 -125.617188 118.765625 -120.234375 C 127.734375 -114.859375 134.78125 -107.445312 139.90625 -98 C 145.039062 -88.550781 147.609375 -77.472656 147.609375 -64.765625 C 147.609375 -54.984375 146.0625 -45.9375 142.96875 -37.625 C 139.875 -29.320312 135.429688 -22.113281 129.640625 -16 C 123.859375 -9.894531 116.851562 -5.210938 108.625 -1.953125 C 100.40625 1.304688 91 2.9375 80.40625 2.9375 Z M 80.40625 -29.8125 C 86.269531 -29.8125 91.316406 -31.238281 95.546875 -34.09375 C 99.785156 -36.945312 103.085938 -40.859375 105.453125 -45.828125 C 107.816406 -50.796875 109 -56.375 109 -62.5625 C 109 -68.75 107.816406 -74.285156 105.453125 -79.171875 C 103.085938 -84.066406 99.785156 -87.9375 95.546875 -90.78125 C 91.316406 -93.632812 86.269531 -95.0625 80.40625 -95.0625 C 74.539062 -95.0625 69.445312 -93.632812 65.125 -90.78125 C 60.8125 -87.9375 57.515625 -84.066406 55.234375 -79.171875 C 52.953125 -74.285156 51.8125 -68.75 51.8125 -62.5625 C 51.8125 -56.375 52.953125 -50.796875 55.234375 -45.828125 C 57.515625 -40.859375 60.8125 -36.945312 65.125 -34.09375 C 69.445312 -31.238281 74.539062 -29.8125 80.40625 -29.8125 Z M 80.40625 -29.8125 "/></g></g></g><g fill="#ffffff" fill-opacity="1"><g transform="translate(142.904678, 279.138852)"><g><path d="M 80.40625 2.9375 C 66.882812 2.9375 55.070312 0.164062 44.96875 -5.375 C 34.863281 -10.914062 27.039062 -18.816406 21.5 -29.078125 C 15.96875 -39.347656 13.203125 -51.328125 13.203125 -65.015625 L 13.203125 -178.40625 L 51.078125 -178.40625 L 51.078125 -111.6875 L 51.8125 -111.6875 C 54.257812 -115.101562 57.3125 -118.070312 60.96875 -120.59375 C 64.632812 -123.125 68.707031 -125.039062 73.1875 -126.34375 C 77.675781 -127.65625 82.441406 -128.3125 87.484375 -128.3125 C 99.378906 -128.3125 109.804688 -125.617188 118.765625 -120.234375 C 127.734375 -114.859375 134.78125 -107.445312 139.90625 -98 C 145.039062 -88.550781 147.609375 -77.472656 147.609375 -64.765625 C 147.609375 -54.984375 146.0625 -45.9375 142.96875 -37.625 C 139.875 -29.320312 135.429688 -22.113281 129.640625 -16 C 123.859375 -9.894531 116.851562 -5.210938 108.625 -1.953125 C 100.40625 1.304688 91 2.9375 80.40625 2.9375 Z M 80.40625 -29.8125 C 86.269531 -29.8125 91.316406 -31.238281 95.546875 -34.09375 C 99.785156 -36.945312 103.085938 -40.859375 105.453125 -45.828125 C 107.816406 -50.796875 109 -56.375 109 -62.5625 C 109 -68.75 107.816406 -74.285156 105.453125 -79.171875 C 103.085938 -84.066406 99.785156 -87.9375 95.546875 -90.78125 C 91.316406 -93.632812 86.269531 -95.0625 80.40625 -95.0625 C 74.539062 -95.0625 69.445312 -93.632812 65.125 -90.78125 C 60.8125 -87.9375 57.515625 -84.066406 55.234375 -79.171875 C 52.953125 -74.285156 51.8125 -68.75 51.8125 -62.5625 C 51.8125 -56.375 52.953125 -50.796875 55.234375 -45.828125 C 57.515625 -40.859375 60.8125 -36.945312 65.125 -34.09375 C 69.445312 -31.238281 74.539062 -29.8125 80.40625 -29.8125 Z M 80.40625 -29.8125 "/></g></g></g><g fill="#ffffff" fill-opacity="1"><g transform="translate(285.380519, 279.138852)"><g><path d="M 4.890625 0 L 43.015625 -54.75 C 36.335938 -58.164062 30.753906 -62.273438 26.265625 -67.078125 C 21.785156 -71.890625 18.363281 -77.390625 16 -83.578125 C 13.644531 -89.773438 12.46875 -96.375 12.46875 -103.375 L 12.46875 -125.375 L 50.34375 -125.375 L 50.34375 -105.328125 C 50.34375 -101.421875 51.113281 -97.796875 52.65625 -94.453125 C 54.207031 -91.117188 56.328125 -88.347656 59.015625 -86.140625 C 61.703125 -83.941406 64.675781 -82.351562 67.9375 -81.375 L 96.78125 -125.375 L 139.546875 -125.375 L 103.375 -72.828125 C 110.707031 -69.890625 116.9375 -65.851562 122.0625 -60.71875 C 127.195312 -55.59375 131.109375 -49.769531 133.796875 -43.25 C 136.492188 -36.738281 137.84375 -29.734375 137.84375 -22.234375 L 137.84375 0 L 99.71875 0 L 99.71875 -21.015625 C 99.71875 -25.410156 98.695312 -29.398438 96.65625 -32.984375 C 94.625 -36.578125 91.9375 -39.515625 88.59375 -41.796875 C 85.25 -44.078125 81.539062 -45.378906 77.46875 -45.703125 L 47.40625 0 Z M 4.890625 0 "/></g></g></g><g fill="#ffffff" fill-opacity="1"><g transform="translate(419.79161, 279.138852)"><g><path d="M 32.75 2.9375 C 26.226562 2.9375 20.644531 0.613281 16 -4.03125 C 11.363281 -8.675781 9.046875 -14.175781 9.046875 -20.53125 C 9.046875 -27.039062 11.363281 -32.617188 16 -37.265625 C 20.644531 -41.910156 26.226562 -44.234375 32.75 -44.234375 C 39.101562 -44.234375 44.597656 -41.910156 49.234375 -37.265625 C 53.878906 -32.617188 56.203125 -27.039062 56.203125 -20.53125 C 56.203125 -16.289062 55.144531 -12.378906 53.03125 -8.796875 C 50.914062 -5.210938 48.101562 -2.359375 44.59375 -0.234375 C 41.09375 1.878906 37.144531 2.9375 32.75 2.9375 Z M 32.75 2.9375 "/></g></g></g><g fill="#ffffff" fill-opacity="1"><g transform="translate(471.600432, 279.138852)"><g><path d="M 14.171875 0 L 14.171875 -178.40625 L 52.0625 -178.40625 L 52.0625 0 Z M 14.171875 0 "/></g></g></g><g fill="#ffffff" fill-opacity="1"><g transform="translate(524.142386, 279.138852)"><g><path d="M 64.515625 2.9375 C 53.441406 2.9375 43.664062 0.0859375 35.1875 -5.609375 C 26.71875 -11.316406 20.117188 -19.015625 15.390625 -28.703125 C 10.671875 -38.398438 8.3125 -49.363281 8.3125 -61.59375 C 8.3125 -74.300781 11.078125 -85.660156 16.609375 -95.671875 C 22.148438 -105.691406 30.015625 -113.632812 40.203125 -119.5 C 50.390625 -125.375 62.40625 -128.3125 76.25 -128.3125 C 90.257812 -128.3125 102.191406 -125.414062 112.046875 -119.625 C 121.910156 -113.84375 129.488281 -105.941406 134.78125 -95.921875 C 140.070312 -85.898438 142.71875 -74.695312 142.71875 -62.3125 L 142.71875 0 L 105.578125 0 L 105.578125 -20.046875 L 104.59375 -20.046875 C 102.3125 -15.640625 99.378906 -11.6875 95.796875 -8.1875 C 92.210938 -4.6875 87.851562 -1.957031 82.71875 0 C 77.59375 1.957031 71.523438 2.9375 64.515625 2.9375 Z M 75.765625 -29.8125 C 81.460938 -29.8125 86.46875 -31.238281 90.78125 -34.09375 C 95.101562 -36.945312 98.40625 -40.894531 100.6875 -45.9375 C 102.96875 -50.988281 104.109375 -56.613281 104.109375 -62.8125 C 104.109375 -68.832031 102.96875 -74.285156 100.6875 -79.171875 C 98.40625 -84.066406 95.101562 -87.9375 90.78125 -90.78125 C 86.46875 -93.632812 81.460938 -95.0625 75.765625 -95.0625 C 69.898438 -95.0625 64.765625 -93.632812 60.359375 -90.78125 C 55.960938 -87.9375 52.625 -84.066406 50.34375 -79.171875 C 48.0625 -74.285156 46.921875 -68.832031 46.921875 -62.8125 C 46.921875 -56.613281 48.0625 -50.988281 50.34375 -45.9375 C 52.625 -40.894531 55.960938 -36.945312 60.359375 -34.09375 C 64.765625 -31.238281 69.898438 -29.8125 75.765625 -29.8125 Z M 75.765625 -29.8125 "/></g></g></g><g fill="#ffffff" fill-opacity="1"><g transform="translate(667.35136, 279.138852)"><g><path d="M 80.40625 2.9375 C 66.882812 2.9375 55.070312 0.164062 44.96875 -5.375 C 34.863281 -10.914062 27.039062 -18.816406 21.5 -29.078125 C 15.96875 -39.347656 13.203125 -51.328125 13.203125 -65.015625 L 13.203125 -178.40625 L 51.078125 -178.40625 L 51.078125 -111.6875 L 51.8125 -111.6875 C 54.257812 -115.101562 57.3125 -118.070312 60.96875 -120.59375 C 64.632812 -123.125 68.707031 -125.039062 73.1875 -126.34375 C 77.675781 -127.65625 82.441406 -128.3125 87.484375 -128.3125 C 99.378906 -128.3125 109.804688 -125.617188 118.765625 -120.234375 C 127.734375 -114.859375 134.78125 -107.445312 139.90625 -98 C 145.039062 -88.550781 147.609375 -77.472656 147.609375 -64.765625 C 147.609375 -54.984375 146.0625 -45.9375 142.96875 -37.625 C 139.875 -29.320312 135.429688 -22.113281 129.640625 -16 C 123.859375 -9.894531 116.851562 -5.210938 108.625 -1.953125 C 100.40625 1.304688 91 2.9375 80.40625 2.9375 Z M 80.40625 -29.8125 C 86.269531 -29.8125 91.316406 -31.238281 95.546875 -34.09375 C 99.785156 -36.945312 103.085938 -40.859375 105.453125 -45.828125 C 107.816406 -50.796875 109 -56.375 109 -62.5625 C 109 -68.75 107.816406 -74.285156 105.453125 -79.171875 C 103.085938 -84.066406 99.785156 -87.9375 95.546875 -90.78125 C 91.316406 -93.632812 86.269531 -95.0625 80.40625 -95.0625 C 74.539062 -95.0625 69.445312 -93.632812 65.125 -90.78125 C 60.8125 -87.9375 57.515625 -84.066406 55.234375 -79.171875 C 52.953125 -74.285156 51.8125 -68.75 51.8125 -62.5625 C 51.8125 -56.375 52.953125 -50.796875 55.234375 -45.828125 C 57.515625 -40.859375 60.8125 -36.945312 65.125 -34.09375 C 69.445312 -31.238281 74.539062 -29.8125 80.40625 -29.8125 Z M 80.40625 -29.8125 "/></g></g></g></g></g></svg>